<svg width="220" height="50" viewBox="0 0 220 50" fill="none" xmlns="http://www.w3.org/2000/svg">
<path d="M16.6171 36.3808C15.1232 36.3808 13.7193 36.1123 12.4047 35.5744C11.1245 35.0597 9.96121 34.2923 8.98425 33.3181C8.00412 32.3314 7.22311 31.1652 6.68384 29.8833C6.11616 28.559 5.83233 27.1197 5.83233 25.5663V25.5068C5.83233 23.9937 6.10562 22.5745 6.65411 21.2503C7.20069 19.926 7.96781 18.7715 8.95356 17.7848C9.93932 16.7981 11.0996 16.0271 12.4344 15.469C13.7682 14.9119 15.2315 14.6329 16.8252 14.6329C17.9001 14.6329 18.8763 14.7374 19.7527 14.9464C20.6292 15.1555 21.4308 15.4537 22.1577 15.843C22.8855 16.2314 23.5414 16.6897 24.1301 17.2171C24.717 17.7445 25.2396 18.3275 25.6989 18.9642L21.3368 22.3405C20.7395 21.6041 20.0816 21.0115 19.3653 20.5627C18.6481 20.1149 17.7822 19.8905 16.7658 19.8905C16.0284 19.8905 15.3562 20.0353 14.7492 20.324C14.1487 20.608 13.6145 21.0151 13.1814 21.5188C12.7432 22.026 12.3999 22.6186 12.1505 23.2966C11.9012 23.9745 11.7775 24.6908 11.7775 25.4474V25.5068C11.7775 26.2845 11.9012 27.0152 12.1505 27.7027C12.3999 28.3893 12.7432 28.9829 13.1814 29.4805C13.6196 29.9792 14.1422 30.3723 14.7501 30.66C15.3813 30.9541 16.0705 31.1022 16.7667 31.0934C17.3047 31.0934 17.7975 31.034 18.2453 30.9132C18.6941 30.7933 19.1016 30.6188 19.4699 30.3905C19.8381 30.1623 20.1871 29.8919 20.516 29.5832C20.8449 29.2753 21.1681 28.9311 21.4864 28.5533L25.8485 31.6601C25.3499 32.3371 24.8081 32.9642 24.2212 33.5425C23.6232 34.1272 22.9499 34.6296 22.219 35.0364C21.473 35.4555 20.6407 35.7825 19.7249 36.0222C18.8073 36.261 17.7716 36.3808 16.6171 36.3808V36.3808ZM29.85 15.051H39.7382C41.3521 15.051 42.7147 15.2504 43.8308 15.6484C44.946 16.0473 45.8522 16.5948 46.5493 17.291C47.7844 18.526 48.4019 20.1485 48.4019 22.1603V22.2197C48.4019 23.8326 48.0145 25.1722 47.2369 26.2375C46.4601 27.3029 45.4149 28.1141 44.1003 28.6722L49.0895 35.9618H42.4279L38.2155 29.6282H35.6456V35.9618H29.851V15.051H29.85ZM39.4995 25.0888C40.4756 25.0888 41.237 24.8644 41.7845 24.4166C42.3321 23.9688 42.6053 23.3666 42.6053 22.609V22.5496C42.6053 21.7125 42.3215 21.0853 41.7538 20.6673C41.1862 20.2492 40.4248 20.0401 39.4688 20.0401H35.6447V25.0888H39.4995ZM60.0516 14.9014H65.6373L74.5397 35.9627H68.326L66.8321 32.1981H58.737L57.243 35.9627H51.1789L60.0516 14.9014V14.9014ZM65.13 27.6874L62.7999 21.7729L60.44 27.6874H65.13ZM78.0656 15.051H94.7947V20.1293H83.8612V23.684H93.7495V28.4938H83.8612V35.9627H78.0656V15.051V15.051ZM104.054 20.1303H97.8104V15.051H116.124V20.1293H109.85V35.9627H104.054V20.1303ZM120.156 15.051H126.28L131.269 23.146L136.259 15.051H142.381V35.9627H136.616V23.9534L131.269 32.1386H131.15L125.832 23.9832V35.9627H120.156V15.051ZM154.81 14.9014H160.396L169.298 35.9627H163.084L161.591 32.1981H153.495L152 35.9627H145.936L154.81 14.9014V14.9014ZM159.889 27.6874L157.557 21.7729L155.197 27.6874H159.889ZM172.823 15.051H180.919C182.771 15.051 184.428 15.3051 185.892 15.8123C187.356 16.3196 188.59 17.0321 189.596 17.9488C190.595 18.8554 191.381 19.9725 191.897 21.2196C192.424 22.4844 192.687 23.8738 192.687 25.387V25.4464C192.687 26.9605 192.42 28.3586 191.882 29.6436C191.356 30.9102 190.561 32.0472 189.552 32.9758C188.534 33.9126 187.29 34.6433 185.817 35.1707C184.343 35.699 182.669 35.9627 180.798 35.9627H172.822V15.051H172.823ZM178.619 20.159V30.824H180.979C182.73 30.824 184.135 30.3656 185.192 29.4499C186.246 28.5341 186.774 27.23 186.774 25.5366V25.4771C186.774 23.7847 186.245 22.4748 185.192 21.5485C184.135 20.6222 182.731 20.159 180.979 20.159H178.619V20.159ZM197.2 15.051H214.018V19.95H202.934V23.146H212.973V27.7162H202.934V31.033H214.168V35.9627H197.2V15.051V15.051Z" fill="black"/>
</svg>
