<svg width="220" height="50" viewBox="0 0 220 50" fill="none" xmlns="http://www.w3.org/2000/svg">
<g clip-path="url(#clip0)">
<path d="M17.2272 33.4443V32.5151C16.5098 33.3728 15.0391 34.159 13.2815 34.159C8.65435 34.159 6 30.4425 6 26.1542C6 21.9016 8.65435 18.1851 13.2815 18.1851C15.0391 18.1851 16.5098 18.9713 17.2272 19.7932V18.5424H21.6392V32.7653C21.6392 38.2329 18.3033 40.7701 13.7837 40.7701C9.62283 40.7701 6.78913 38.6617 6.32283 35.0881H10.6272C10.9859 36.589 12.062 37.3395 13.7837 37.3395C16.0435 37.3395 17.2272 36.0172 17.2272 33.4443ZM17.2272 28.7629V23.5454C16.6892 22.652 15.5413 21.9016 14.2141 21.9016C11.8468 21.9016 10.4478 23.6884 10.4478 26.1542C10.4478 28.6557 11.8468 30.4425 14.2141 30.4425C15.5413 30.4425 16.6892 29.692 17.2272 28.7629ZM35.263 28.3629L39.2474 27.2992C39.575 30.7264 37.716 33.4795 33.8355 34.5154C29.3313 35.7178 25.4351 33.2432 24.1539 28.4797C22.9006 23.8198 25.0998 19.57 29.4307 18.4139C33.9695 17.2023 37.3089 19.6775 38.5251 24.1994L38.8779 25.5111L28.553 28.2673C29.3136 30.543 31.0015 31.5723 32.9071 31.0636C34.3623 30.6751 35.2693 29.7671 35.263 28.3629ZM30.403 21.891C28.7399 22.3349 27.8312 23.6504 27.9606 25.6507L33.9546 24.0506C33.4837 22.4375 32.17 21.4193 30.403 21.891ZM42.0746 29.692V22.116H39.6355V18.5424H42.0746V14.2184H46.4866V18.5424H50.0018V22.116H46.4866V29.1202C46.4866 30.371 47.1681 30.9428 48.3159 30.9428C48.9974 30.9428 49.7507 30.7283 50.2529 30.4067V34.3377C49.6431 34.6593 48.567 34.838 47.3833 34.838C44.1192 34.838 42.0746 33.2299 42.0746 29.692Z" fill="#171717"/>
<path d="M66.3448 34.0426H61.9706V33.1706C61.4192 33.7156 59.7651 34.3333 57.9639 34.3333C54.6557 34.3333 51.8621 32.4438 51.8621 29.0645C51.8621 25.9759 54.6557 23.8684 58.2213 23.8684C59.6548 23.8684 61.3089 24.3408 61.9706 24.8131V23.614C61.9706 22.2332 61.1251 21.1068 59.2872 21.1068C58.0007 21.1068 57.2288 21.6882 56.8612 22.6329H52.5237C53.0016 19.6897 55.6849 17.4368 59.4343 17.4368C63.8085 17.4368 66.3448 19.7987 66.3448 23.6867V34.0426ZM61.9706 29.6096V28.4468C61.5663 27.5747 60.3165 27.0297 58.9932 27.0297C57.5596 27.0297 56.0893 27.6474 56.0893 29.0282C56.0893 30.4453 57.5596 31.0267 58.9932 31.0267C60.3165 31.0267 61.5663 30.4816 61.9706 29.6096Z" fill="#2278cf"/>
<path d="M68.7586 33.9798V18.1768H73.2323V19.6263C74.0982 18.6364 75.6856 17.8232 77.5617 17.8232C81.2056 17.8232 83.2621 20.1566 83.2621 23.6566V33.9798H78.7884V24.5758C78.7884 22.9141 77.9225 21.7828 76.1547 21.7828C74.7837 21.7828 73.5931 22.596 73.2323 23.9747V33.9798H68.7586ZM96.796 27.8922L100.804 26.8399C101.133 30.2304 99.2633 32.954 95.3602 33.9788C90.8298 35.1684 86.9109 32.7203 85.6223 28.0077C84.3617 23.3976 86.5737 19.1934 90.9298 18.0496C95.495 16.8509 98.8538 19.2997 100.077 23.7732L100.432 25.0708L90.0469 27.7976C90.812 30.049 92.5097 31.0672 94.4264 30.564C95.8901 30.1797 96.8023 29.2813 96.796 27.8922ZM91.9077 21.4895C90.235 21.9287 89.3209 23.2301 89.4512 25.209L95.48 23.626C95.0063 22.0301 93.685 21.0228 91.9077 21.4895ZM114.446 18.1768L117.116 28.2525L120.002 18.1768H124.331L119.425 33.9798H115.312L112.678 24.2929L110.044 33.9798H105.931L101.025 18.1768H105.498L108.385 28.2525L111.018 18.1768H114.446ZM124.879 29.2778H129.316C129.677 30.4091 130.687 31.0101 132.022 31.0101C133.393 31.0101 134.295 30.4798 134.295 29.4545C134.295 28.7475 133.79 28.3939 132.671 28.1111L129.424 27.404C126.971 26.8384 125.239 25.601 125.239 22.9495C125.239 19.8737 128.053 17.8232 131.661 17.8232C135.738 17.8232 137.975 19.7323 138.516 22.702H134.259C133.97 21.8182 133.213 21.1465 131.733 21.1465C130.651 21.1465 129.605 21.6414 129.605 22.6313C129.605 23.2677 130.038 23.6212 131.048 23.8687L134.367 24.6111C137.181 25.2828 138.66 26.803 138.66 29.2071C138.66 32.4242 135.81 34.3333 132.058 34.3333C128.126 34.3333 125.348 32.495 124.879 29.2778ZM145.557 11V33.9798H141.084V11H145.557ZM159.272 27.8922L163.279 26.8399C163.609 30.2304 161.739 32.954 157.836 33.9788C153.306 35.1684 149.387 32.7203 148.098 28.0077C146.837 23.3976 149.049 19.1934 153.406 18.0496C157.971 16.8509 161.33 19.2997 162.553 23.7732L162.908 25.0708L152.523 27.7976C153.288 30.049 154.986 31.0672 156.902 30.564C158.366 30.1797 159.278 29.2813 159.272 27.8922ZM154.384 21.4895C152.711 21.9287 151.797 23.2301 151.927 25.209L157.956 23.626C157.482 22.0301 156.161 21.0228 154.384 21.4895ZM166.134 29.2071V21.7121H163.681V18.1768H166.134V13.899H170.572V18.1768H174.108V21.7121H170.572V28.6414C170.572 29.8788 171.257 30.4444 172.412 30.4444C173.097 30.4444 173.855 30.2323 174.36 29.9141V33.803C173.747 34.1212 172.664 34.298 171.474 34.298C168.191 34.298 166.134 32.7071 166.134 29.2071ZM175.97 29.2071V21.7121H173.516V18.1768H175.97V13.899H180.407V18.1768H183.943V21.7121H180.407V28.6414C180.407 29.8788 181.093 30.4444 182.247 30.4444C182.933 30.4444 183.69 30.2323 184.195 29.9141V33.803C183.582 34.1212 182.5 34.298 181.309 34.298C178.026 34.298 175.97 32.7071 175.97 29.2071ZM197.116 27.8922L201.124 26.8399C201.453 30.2304 199.583 32.954 195.68 33.9788C191.15 35.1684 187.231 32.7203 185.942 28.0077C184.682 23.3976 186.894 19.1934 191.25 18.0496C195.815 16.8509 199.174 19.2997 200.397 23.7732L200.752 25.0708L190.367 27.7976C191.132 30.049 192.83 31.0672 194.747 30.564C196.21 30.1797 197.122 29.2813 197.116 27.8922ZM192.228 21.4895C190.555 21.9287 189.641 23.2301 189.771 25.209L195.8 23.626C195.326 22.0301 194.005 21.0228 192.228 21.4895ZM212.782 18.1061V22.4899C212.168 22.1364 211.375 21.9596 210.545 21.9596C209.029 21.9596 207.803 22.7374 207.478 24.1869V33.9798H203.004V18.1768H207.478V19.7323C208.164 18.601 209.498 17.8232 211.086 17.8232C211.844 17.8232 212.529 17.9646 212.782 18.1061Z" fill="#171717"/>
<path d="M210.368 31.4995C210.368 29.9055 211.595 28.7011 213.184 28.7011C214.772 28.7011 216 29.9055 216 31.4995C216 33.0935 214.772 34.3333 213.184 34.3333C211.595 34.3333 210.368 33.0935 210.368 31.4995Z" fill="#2278cf"/>
</g>
<defs>
<clipPath id="clip0">
<rect width="210" height="29.7701" fill="white" transform="translate(6 11)"/>
</clipPath>
</defs>
</svg>
