<svg width="220" height="50" viewBox="0 0 220 50" fill="none" xmlns="http://www.w3.org/2000/svg">
<path d="M74.7338 39.7481H84.255L70.8674 20.2756L84.2066 5.40474H74.1539L61.6362 19.8396V5.40474H54V39.7481H61.6362V30.5447L65.5027 26.2336L74.7338 39.7481Z" fill="url(#paint0_linear)"/>
<path d="M105.549 8.65016H98.9761V11.7503C98.9761 13.9785 97.7679 15.6738 95.2547 15.6738H94.0464V22.1163H98.2995V32.4338C98.2995 37.2293 101.344 40.1841 106.322 40.1841C108.642 40.1841 109.851 39.6512 110.14 39.5059V33.4026C109.706 33.4995 108.981 33.6448 108.207 33.6448C106.612 33.6448 105.549 33.112 105.549 31.1259V22.1163H110.237V15.6738H105.549V8.65016Z" fill="url(#paint1_linear)"/>
<path d="M120.983 8.65016H114.41V11.7503C114.41 13.9785 113.202 15.6738 110.688 15.6738H109.48V22.1163H113.733V32.4338C113.733 37.2293 116.778 40.1841 121.756 40.1841C124.076 40.1841 125.284 39.6512 125.574 39.5059V33.4026C125.139 33.4995 124.414 33.6448 123.641 33.6448C122.046 33.6448 120.983 33.112 120.983 31.1259V22.1163H125.671V15.6738H120.983V8.65016Z" fill="url(#paint2_linear)"/>
<path d="M138.962 49L153.751 15.6738H145.97L140.654 28.5587L134.806 15.6738H126.59L136.691 36.5027L131.229 49H138.962Z" fill="url(#paint3_linear)"/>
<path d="M163 5.40474H154.204L155.895 28.9946H161.308L163 5.40474ZM154.397 36.0667C154.397 38.3434 156.234 40.2325 158.554 40.2325C160.873 40.2325 162.758 38.3434 162.758 36.0667C162.758 33.7417 160.873 31.8525 158.554 31.8525C156.234 31.8525 154.397 33.7417 154.397 36.0667Z" fill="url(#paint4_linear)"/>
<path d="M93.7212 39.7481L84.9711 39.7481L86.8685 15.1289H92.2815L93.7212 39.7481ZM85.4144 9.47362C87.5 7.5 87 7.5 89.5267 5.40472C91.8465 5.40472 93.7212 7.19698 93.7212 9.47362C93.7212 11.7987 91.8465 13.8619 89.5267 13.8619C87.2068 13.8619 85.4144 11.7987 85.4144 9.47362Z" fill="url(#paint5_linear)"/>
<defs>
<linearGradient id="paint0_linear" x1="-49.4948" y1="-8.69107" x2="-27.3854" y2="108.226" gradientUnits="userSpaceOnUse">
<stop stop-color="#FFA6B7"/>
<stop offset="1" stop-color="#1E2AD2"/>
</linearGradient>
<linearGradient id="paint1_linear" x1="-49.4948" y1="-8.69107" x2="-27.3854" y2="108.226" gradientUnits="userSpaceOnUse">
<stop stop-color="#FFA6B7"/>
<stop offset="1" stop-color="#1E2AD2"/>
</linearGradient>
<linearGradient id="paint2_linear" x1="-49.4948" y1="-8.69107" x2="-27.3854" y2="108.226" gradientUnits="userSpaceOnUse">
<stop stop-color="#FFA6B7"/>
<stop offset="1" stop-color="#1E2AD2"/>
</linearGradient>
<linearGradient id="paint3_linear" x1="-49.4948" y1="-8.69107" x2="-27.3854" y2="108.226" gradientUnits="userSpaceOnUse">
<stop stop-color="#FFA6B7"/>
<stop offset="1" stop-color="#1E2AD2"/>
</linearGradient>
<linearGradient id="paint4_linear" x1="-49.4948" y1="-8.69107" x2="-27.3854" y2="108.226" gradientUnits="userSpaceOnUse">
<stop stop-color="#FFA6B7"/>
<stop offset="1" stop-color="#1E2AD2"/>
</linearGradient>
<linearGradient id="paint5_linear" x1="-49.4948" y1="-8.69107" x2="-27.3854" y2="108.226" gradientUnits="userSpaceOnUse">
<stop stop-color="#FFA6B7"/>
<stop offset="1" stop-color="#1E2AD2"/>
</linearGradient>
</defs>
</svg>
